<?xml version="1.0" encoding="UTF-8"?><svg id="a" xmlns="http://www.w3.org/2000/svg" viewBox="0 0 608.39 119.44"><path d="M27.85,74.13c3.23,0,6.8-1.46,10.72-4.38V28.54l19.37.12v46.51h9.68v13.95h-29.05v-3.29c-3.38,2.35-6.73,3.52-10.03,3.52-2.81,0-5.2-.75-7.2-2.25v29.28H2.25V28.65h19.31v38.04c0,2.27.54,4.08,1.61,5.42s2.63,2.02,4.67,2.02Z" fill="#cccdce" stroke="#231f20" stroke-linecap="round" stroke-linejoin="round" stroke-width="4.51"/><path d="M138.81,50.5v65.88h-19.26V52.05c0-2.92-.43-5-1.3-6.25s-2.35-1.87-4.47-1.87c-3.69,0-7.34,1.33-10.95,3.98v41.21h-19.37v-46.4h-9.22v-14.18h28.59v5.71c5.72-4.34,11.59-6.51,17.58-6.51s10.65,1.95,13.74,5.85c3.11,3.9,4.66,9.54,4.66,16.92ZM103.18,22.2l5.88-19.94h15.85l-11.35,19.94h-10.37Z" fill="#cccdce" stroke="#231f20" stroke-linecap="round" stroke-linejoin="round" stroke-width="4.51"/><path d="M216.5,75.17v13.95h-19.71l-13.78-35.62-15.62,35.62h-20.29l26.11-59.71-5.3-13.26h-12.45V2.25h25.07l28.99,72.91h6.97Z" fill="#cccdce" stroke="#231f20" stroke-linecap="round" stroke-linejoin="round" stroke-width="4.51"/><path d="M284.06,58.8c0,6.03-1.42,11.47-4.27,16.31s-6.69,8.63-11.53,11.35c-4.84,2.73-10.17,4.09-15.97,4.09-6.14,0-11.64-1.37-16.48-4.09-4.84-2.73-8.61-6.51-11.33-11.35-2.7-4.84-4.06-10.28-4.06-16.31s1.39-11.4,4.17-16.2c2.79-4.8,6.63-8.58,11.5-11.33,4.88-2.75,10.28-4.12,16.2-4.12s11.47,1.37,16.31,4.12c4.84,2.75,8.62,6.52,11.35,11.33,2.73,4.8,4.09,10.2,4.09,16.2ZM252.18,75.51c3.77,0,6.72-1.47,8.84-4.41,2.14-2.94,3.2-7.16,3.2-12.65,0-5.15-1.06-9.18-3.2-12.08-2.12-2.9-5.12-4.35-8.96-4.35s-6.82,1.43-8.82,4.29-3,7.18-3,12.94c0,4.88,1.08,8.81,3.25,11.79,2.18,2.98,5.07,4.47,8.68,4.47Z" fill="#cccdce" stroke="#231f20" stroke-linecap="round" stroke-linejoin="round" stroke-width="4.51"/><path d="M341.06,33.03v-4.38h13.6v28.13h-13.95c-1.73-9.84-6.57-14.76-14.52-14.76-9.03,0-13.55,4.69-13.55,14.06,0,3.61,1.45,6.66,4.36,9.14,2.89,2.48,7.08,4.58,12.53,6.31,9.11,2.84,15.63,6.11,19.56,9.8,3.94,3.69,5.91,8.72,5.91,15.1s-2.04,11.72-6.14,15.33c-4.08,3.61-10.03,5.42-17.83,5.42-2.57,0-6.34-.27-11.3-.81v-14.76c2.42.62,5.57.92,9.45.92,2.8,0,4.99-.45,6.57-1.35s2.36-2.18,2.36-3.83c0-1.31-.71-2.46-2.13-3.46-1.42-1-3.42-1.93-6.03-2.8-2.58-.86-6.67-2.12-12.24-3.78-8.1-2.27-14.2-5.69-18.31-10.26-4.08-4.57-6.13-10.55-6.13-17.93,0-6.3,1.34-11.87,4.01-16.72,2.66-4.84,6.44-8.6,11.32-11.27s10.51-4.01,16.89-4.01c5.57,0,10.76,1.96,15.56,5.88Z" fill="#cccdce" stroke="#231f20" stroke-linecap="round" stroke-linejoin="round" stroke-width="4.51"/><path d="M428.2,74.13c3.23,0,6.8-1.46,10.72-4.38V28.54l19.37.12v46.51h9.68v13.95h-29.05v-3.29c-3.38,2.35-6.72,3.52-10.03,3.52-2.8,0-5.21-.75-7.2-2.25v29.28h-19.08V28.65h19.31v38.04c0,2.27.54,4.08,1.61,5.42s2.63,2.02,4.67,2.02Z" fill="#cccdce" stroke="#231f20" stroke-linecap="round" stroke-linejoin="round" stroke-width="4.51"/><path d="M540.13,58.8c0,6.03-1.42,11.47-4.27,16.31s-6.69,8.63-11.53,11.35c-4.84,2.73-10.17,4.09-15.97,4.09-6.14,0-11.64-1.37-16.48-4.09-4.84-2.73-8.61-6.51-11.33-11.35-2.7-4.84-4.06-10.28-4.06-16.31s1.39-11.4,4.17-16.2c2.79-4.8,6.63-8.58,11.5-11.33,4.88-2.75,10.28-4.12,16.2-4.12s11.47,1.37,16.31,4.12,8.62,6.52,11.35,11.33c2.73,4.8,4.09,10.2,4.09,16.2ZM508.26,75.51c3.77,0,6.72-1.47,8.84-4.41,2.14-2.94,3.2-7.16,3.2-12.65,0-5.15-1.06-9.18-3.2-12.08-2.12-2.9-5.12-4.35-8.96-4.35s-6.82,1.43-8.82,4.29c-1.99,2.86-3,7.18-3,12.94,0,4.88,1.08,8.81,3.25,11.79,2.18,2.98,5.07,4.47,8.68,4.47Z" fill="#cccdce" stroke="#231f20" stroke-linecap="round" stroke-linejoin="round" stroke-width="4.51"/><path d="M579.22,75.17c3,0,5.25-.79,6.74-2.36,1.5-1.57,2.25-3.84,2.25-6.8v-23.29h-6.05v-14.06h23.98v43.46c0,6.15-2.18,10.82-6.55,14.01-4.36,3.19-11.03,4.78-20.02,4.78s-16.02-1.69-20.52-5.07c-4.5-3.38-6.74-8.26-6.74-14.64v-28.47h-8.59v-14.06h26.28v37.47c0,2.88.77,5.11,2.31,6.69,1.53,1.57,3.84,2.36,6.92,2.36Z" fill="#cccdce" stroke="#231f20" stroke-linecap="round" stroke-linejoin="round" stroke-width="4.51"/></svg>